<?xml version="1.0" encoding="UTF-8" standalone="no"?>
<!-- Generator: Adobe Illustrator 24.2.3, SVG Export Plug-In . SVG Version: 6.00 Build 0)  -->

<svg
   version="1.1"
   id="Capa_1"
   x="0px"
   y="0px"
   viewBox="0 0 2557.621 1080"
   xml:space="preserve"
   sodipodi:docname="hey-banco-logo.svg"
   width="2557.6211"
   height="1080"
   inkscape:version="1.1 (c68e22c387, 2021-05-23)"
   xmlns:inkscape="http://www.inkscape.org/namespaces/inkscape"
   xmlns:sodipodi="http://sodipodi.sourceforge.net/DTD/sodipodi-0.dtd"
   xmlns="http://www.w3.org/2000/svg"
   xmlns:svg="http://www.w3.org/2000/svg"
   xmlns:ns="&amp;ns_sfw;"><defs
   id="defs21" /><sodipodi:namedview
   id="namedview19"
   pagecolor="#ffffff"
   bordercolor="#666666"
   borderopacity="1.0"
   inkscape:pageshadow="2"
   inkscape:pageopacity="0.0"
   inkscape:pagecheckerboard="0"
   showgrid="false"
   fit-margin-top="0"
   fit-margin-left="0"
   fit-margin-right="0"
   fit-margin-bottom="0"
   inkscape:zoom="0.12721561"
   inkscape:cx="1143.7276"
   inkscape:cy="1128.0062"
   inkscape:window-width="1920"
   inkscape:window-height="1017"
   inkscape:window-x="1352"
   inkscape:window-y="-8"
   inkscape:window-maximized="1"
   inkscape:current-layer="Capa_1" />
<style
   type="text/css"
   id="style2">
	.st0{fill:#231E1F;}
</style>
<metadata
   id="metadata4">
	<ns:sfw>
		<ns:slices />
		<ns:sliceSourceBounds
   bottomLeftOrigin="true"
   height="85.4"
   width="400.2"
   x="0"
   y="-85.4" />
	</ns:sfw>
</metadata>
<g
   id="Grupo_1578"
   transform="matrix(12.661196,0,0,12.661196,-3553.2127,-6746.7589)">
	<g
   id="Grupo_1554"
   transform="translate(280.638,532.869)">
		<path
   id="Trazado_3173"
   class="st0"
   d="m 21.4,0 v 21.9 c 4.1,-5 10.3,-7.8 16.7,-7.7 6.3,0 11.3,1.8 14.8,5.5 3.6,3.6 5.4,8.6 5.4,15 v 35 H 31.6 v -32 c 0.1,-1.7 -0.4,-3.5 -1.4,-4.9 -1,-1.2 -2.4,-1.9 -4,-1.8 -1.8,0.1 -3.6,0.9 -4.9,2.2 V 69.9 H 0 V 0 Z" />
		<path
   id="Trazado_3174"
   class="st0"
   d="m 142.4,14.7 6.6,14.7 6.4,-14.7 h 27.5 L 153.1,85.3 H 122.3 L 133.7,58.5 114.3,14.7 Z" />
		<path
   id="Trazado_3175"
   class="st0"
   d="m 171.3,58.2 c -0.1,-2.1 0.3,-4.3 1.1,-6.3 0.8,-1.9 1.9,-3.7 3.4,-5.2 1.4,-1.5 3.1,-2.6 5,-3.4 1.9,-0.8 3.9,-1.2 6,-1.2 4.1,-0.1 8.1,1.6 10.9,4.7 2.9,3.3 4.4,7.5 4.3,11.9 0,6.1 -2.4,11.7 -7.1,16.9 -4.6,5.1 -10.9,8.4 -17.7,9.5 l -0.8,-0.6 c 1,-0.6 2,-1.3 2.8,-2.2 0.8,-0.8 1.6,-1.8 2.2,-2.8 0.6,-1 1.1,-2.1 1.5,-3.3 0.4,-1.1 0.6,-2.3 0.7,-3.5 -8.2,-2.3 -12.3,-7.2 -12.3,-14.5" />
		<path
   id="Trazado_3176"
   class="st0"
   d="M 119.8,44.1 C 119.9,38.5 118.6,33 116,28 c -2.4,-4.6 -6.1,-8.3 -10.6,-10.7 -4.7,-2.5 -10,-3.8 -15.3,-3.7 -5.2,-0.1 -10.4,1.2 -15.1,3.6 -4.3,2.3 -7.8,5.7 -10.2,10 -2.5,4.4 -3.7,9.4 -3.6,14.5 0,2.7 0.3,5.5 1,8.2 0.6,2.5 1.6,4.9 3,7.1 1.3,2.2 2.9,4.1 4.8,5.8 1.9,1.8 4.1,3.2 6.4,4.4 2.5,1.2 5.1,2.1 7.8,2.7 3,0.6 6,0.9 9,0.9 5.2,0.1 10.4,-0.9 15.2,-2.9 4.6,-2.1 8.5,-5.3 11.5,-9.3 v -9.7 c -0.9,1 -1.9,1.8 -3,2.5 -1.1,0.8 -2.4,1.4 -3.6,1.9 -1.3,0.5 -2.7,0.9 -4.1,1.2 -1.5,0.3 -3,0.4 -4.4,0.4 -1.5,0 -3.1,-0.2 -4.6,-0.6 -1.4,-0.4 -2.7,-1 -3.9,-1.8 -1.2,-0.8 -2.2,-1.7 -3.1,-2.8 -0.9,-1.1 -1.6,-2.4 -2.1,-3.7 h 29 z M 71.4,36.2 v -0.5 c -0.1,-1.8 0.5,-3.6 1.6,-5.1 0.9,-1.3 2.4,-2 4,-2 1.7,-0.1 3.3,0.7 4.3,2.1 1.2,1.6 1.8,3.6 1.7,5.6 z m 18.4,0 v -0.4 c -0.1,-1.3 0.5,-2.7 1.4,-3.6 0.9,-1 2.2,-1.5 3.5,-1.5 1.4,-0.1 2.8,0.5 3.8,1.5 1,1.1 1.5,2.5 1.5,4 z" />
	</g>
	<g
   id="Grupo_1555"
   transform="translate(500.72,560.288)">
		<path
   id="Trazado_3177"
   class="st0"
   d="m 27.6,28.6 c 0,9.4 -5,15.8 -13.1,15.8 -6.1,0 -8.9,-3.6 -9.8,-5.4 v 4.8 H 0 V 0 h 4.8 v 17.8 c 1.5,-3.3 5.1,-5.4 9.5,-5.4 7.6,-0.1 13.3,6.2 13.3,16.2 z m -4.7,0.3 c 0,-6.8 -3,-12.5 -9.3,-12.5 -5.9,0 -8.9,4.5 -8.9,11.8 0,7.8 3.3,12.2 9.1,12.2 6.1,0 9.1,-4.7 9.1,-11.5 z" />
		<path
   id="Trazado_3178"
   class="st0"
   d="m 63.1,22.3 v 21.5 h -4.6 v -5.7 c -2.1,4 -6.3,6.5 -10.8,6.4 -5.6,0 -10.1,-3 -10.1,-8.8 0,-5.6 3.9,-8 12.2,-9.2 5.9,-0.9 8.7,-1.5 8.7,-4.8 0,-3.1 -2.9,-5.4 -7,-5.4 -5,0 -7.5,2.7 -7.8,7.3 H 39 c 0.2,-6 3.9,-11.2 12.6,-11.2 6.5,0 11.5,3.3 11.5,9.9 z m -4.6,7.8 v -2.6 c -2.5,1.2 -5.1,2 -7.8,2.3 -5.3,1 -8.4,2.3 -8.4,5.8 0,3.5 3,4.9 6.4,4.9 5.2,0.1 9.8,-3.7 9.8,-10.4 z" />
		<path
   id="Trazado_3179"
   class="st0"
   d="M 101.9,24.1 V 43.8 H 97 v -18 c 0,-6.5 -1.7,-9.5 -5.9,-9.5 -5.4,0 -10.7,6.7 -10.7,17.9 v 9.6 H 75.6 V 13 h 4.8 v 9.7 c 1.8,-5.7 5.3,-10.3 11.9,-10.3 6,-0.1 9.6,3.7 9.6,11.7 z" />
		<path
   id="Trazado_3180"
   class="st0"
   d="m 127.4,16.4 c -6.2,0 -9.9,5.5 -9.9,12 0,7 4.1,12 10.4,12 5.1,0 7.6,-3 8.4,-6.9 h 4.7 c -1,6.5 -5.6,10.9 -13.1,10.9 -9.7,0 -15.1,-7.2 -15.1,-16 0,-8.8 5.6,-16 14.6,-16 7.3,0 12.6,4.6 13.3,11.4 H 136 c -0.5,-4.4 -4.2,-7.6 -8.6,-7.4 z" />
		<path
   id="Trazado_3181"
   class="st0"
   d="m 150.8,28.4 c 0,-9.4 5.7,-16 14.6,-16 8.9,0 14.6,6.7 14.6,16 0,9.3 -5.7,16 -14.6,16 -8.9,0 -14.6,-6.6 -14.6,-16 z m 24.5,0 c 0,-6.8 -3.5,-12.1 -9.9,-12.1 -6.4,0 -9.9,5.2 -9.9,12.1 0,6.8 3.5,12 9.9,12 6.4,0 9.9,-5.2 9.9,-12 z" />
	</g>
</g>
</svg>
